<svg xmlns="http://www.w3.org/2000/svg" viewBox="0 0 120 120" id="my-orders"><rect width="17.07" height="25.37" x="58.47" y="15.5" fill="#a50000"></rect><polygon fill="#f9cc12" points="104.06 25.42 102.24 29.87 100.76 33.48 97.74 40.87 75.66 40.87 75.64 40.86 76.6 38.52 81.83 25.72 83.34 22.03 85.15 17.61 104.06 25.42"></polygon><path fill="#f21616" d="M28.86 40.92c28.55-.02 57.1-.03 85.64-.05-1.68 16.77-3.37 33.53-5.05 50.3H37.3l-8.45-50.25zM20.29 28.96c0 .19-.02.37-.05.55-.11.7-.44 1.33-.93 1.81-.6.61-1.43.99-2.35.99h-8.12c-1.84 0-3.34-1.5-3.34-3.35 0-.93.37-1.76.98-2.37.6-.61 1.43-.99 2.35-.99h8.12c1.84 0 3.34 1.5 3.34 3.35z"></path><polygon fill="#498cd6" points="53.58 21.87 52.79 26.24 52.07 30.19 51.35 34.18 50.64 38.11 50.13 40.91 36.38 40.92 37.32 35.69 37.68 33.7 38.05 31.73 38.76 27.76 39.12 25.78 39.13 25.78 39.49 23.8 40.27 19.45 53.58 21.87"></polygon><path fill="#e5e141" d="M52.79 26.24l-.71 3.95c-.06-.01-.12-.02-.18-.03l-13.14-2.4.36-1.98h.01l.36-1.98 13.13 2.41c.06.01.12.02.17.04zM51.35 34.18l-.71 3.94c-.06 0-.12-.02-.18-.03l-13.14-2.4.36-1.98.36-1.97 13.13 2.4c.06.01.12.03.18.05z"></path><rect width="55.19" height="5.44" x="49.55" y="52.23" fill="#fff" rx="2.71" ry="2.71"></rect><rect width="55.19" height="5.44" x="49.55" y="63.3" fill="#fff" rx="2.71" ry="2.71"></rect><rect width="55.19" height="5.44" x="49.55" y="74.38" fill="#fff" rx="2.71" ry="2.71"></rect><path fill="#f9cc12" d="m61.07,16.04l14.47,20.9v3.93h-2.1c-.1-.09-.18-.19-.26-.3l-14.71-21.24v-3.83h2.05c.21.14.4.32.55.54Z"></path><path fill="#fff" d="m75.64,40.86s.01,0,.02.01h-.02s.96-2.36.96-2.36c-.32.78-.64,1.56-.96,2.35Z"></path><path fill="#444442" d="m102.24,29.87l-1.47,3.61c-.16-.02-.32-.06-.47-.13l-18.24-7.52c-.08-.03-.15-.07-.22-.11l1.5-3.68c.08.01.16.04.24.07l18.24,7.52c.15.06.3.15.42.24Z"></path><ellipse cx="55.87" cy="97.3" fill="#444442" rx="7.17" ry="7.2"></ellipse><ellipse cx="91.94" cy="97.3" fill="#444442" rx="7.17" ry="7.2"></ellipse><path fill="#444442" d="m39.28,90.82l-10.97-61.66c-.17-.96-1-1.66-1.97-1.66h-6.09c-1.11,0-2,.9-2,2.01s.9,2.01,2,2.01h4.42l10.68,60c.17.98,1.02,1.66,1.97,1.66.12,0,.24,0,.35-.03,1.09-.2,1.82-1.24,1.62-2.34Z"></path></svg>