<svg xmlns="http://www.w3.org/2000/svg" data-name="Layer 1" viewBox="0 0 512 512" id="sugarcane-juice-seller"><path fill="#e58a7b" d="M221.885 151.586h7v-42.148h-17.42a9.777 9.777 0 0 0-9.613 11.564l3.065 16.48a17.26 17.26 0 0 0 16.968 14.104zm135.501 0h-7v-42.148h17.42a9.777 9.777 0 0 1 9.613 11.564l-3.064 16.48a17.26 17.26 0 0 1-16.969 14.104z"></path><path fill="#57aafe" d="M462.332 378.775v-53.507a66 66 0 0 0-42.949-61.844l-67.69-25.23a33 33 0 0 1-21.476-30.922v-22.974h-81.163v22.974a33 33 0 0 1-21.475 30.922l-67.69 25.23a66 66 0 0 0-42.95 61.844v104.34l65.866-30.694V504a8 8 0 0 0 8 8h197.66a8 8 0 0 0 8-8V398.05Z"></path><path fill="#416bd0" d="M396.465 454.459V412.05l-38.834-18.415a12.201 12.201 0 0 1-6.008-4.394l-20.729-28.461a12.2 12.2 0 0 0-5.228-4.104L293.7 343.55a12.201 12.201 0 0 0-9.264-.002l-7.974 3.27a12.2 12.2 0 0 0-6.659 15.918l11.33 27.625a12.2 12.2 0 0 0 15.918 6.658l4.308-1.767 10.26 10.894a16.638 16.638 0 0 0 13.638 5.16l.557-.052 70.009 42.827c.213.13.428.252.643.378ZM396.465 390.421v7.629l26.071-7.629h-26.071zM147.094 354.907a3.538 3.538 0 0 0-3.533-3.757h-26.622v78.457l26.247-12.23Z"></path><path fill="#313848" d="M357.386 103.307h-135.5V57.619a42.434 42.434 0 0 1 33.846-41.556l57.016-11.782a37.125 37.125 0 0 1 44.638 36.358Z"></path><path fill="#1d2738" d="M337.052 42.155a108.757 108.757 0 0 1-19.416 17.092c-.994 4.438-4.692 23.206 6.276 38.38a38.532 38.532 0 0 0 5.057 5.68h28.417V40.638a36.856 36.856 0 0 0-5.564-19.566 108.756 108.756 0 0 1-14.77 21.083Z"></path><path fill="#f9beac" d="M221.14 240.595a88.024 88.024 0 0 0 136.991 0l-6.439-2.4a33 33 0 0 1-21.475-30.923v-22.974h-81.163v22.974a33 33 0 0 1-21.475 30.922Z"></path><path fill="#e58a7b" d="M293.676 239.896a26.078 26.078 0 0 0 19.92 0 93.389 93.389 0 0 0 22.766-13.468 32.951 32.951 0 0 1-6.145-19.156v-22.974h-81.163v17a93.417 93.417 0 0 0 44.621 38.598Z"></path><path fill="#f9beac" d="M221.885 132.482v-9.044l7-8.26-7-27.93c2.05.041 4.25 7.049 6.588 7.004s4.813-7.14 7.412-7.305a165.772 165.772 0 0 0 40.79-7.787 165.853 165.853 0 0 0 40.96-19.913 47.64 47.64 0 0 0 16.04 19.505 47.152 47.152 0 0 0 9.71 5.25c2.518 1.002 4.89 8.696 7 9.18 2.94.675 5.377-6.057 7.001-5.935l-7 25.597 7 10.594v9.044a93.504 93.504 0 0 1-57.79 86.414 26.077 26.077 0 0 1-19.92 0h-.001a93.503 93.503 0 0 1-57.79-86.414Z"></path><path fill="#313848" d="M357.386 123.438h-4.208a9.791 9.791 0 0 1-9.792-9.792V84.003a55.78 55.78 0 0 0 7.765 2.347 57.14 57.14 0 0 0 6.235.897zm-135.5 0h4.208a9.792 9.792 0 0 0 9.791-9.792V86.947q-3.355.202-6.927.295-3.643.092-7.073.052z"></path><path fill="#e58a7b" d="M300.815 146.623v8.067a11.18 11.18 0 0 1-11.18 11.179 11.18 11.18 0 0 1-11.179-11.18v-8.066a3 3 0 0 1 3-3h16.359a3 3 0 0 1 3 3Z"></path><path fill="#f9beac" d="m182.805 398.923-12.985 39.41a31.457 31.457 0 0 1-52.384 12.132l-15.061-15.425 21.495-54.796 58.935.709Z"></path><path fill="#e58a7b" d="m145.93 380.51-22.06-.266-21.495 54.796 15.061 15.425a31.036 31.036 0 0 0 20.435 9.42 8.23 8.23 0 0 0 3.482-6.216Z"></path><path fill="#e58a7b" d="M152.572 399.993a11.227 11.227 0 0 1-15.205 7.334l-8.248-3.5a11.887 11.887 0 0 1-5.413-17.279l1.035-1.641a4.453 4.453 0 0 1 4.685-1.984l14.64 3.083a11.227 11.227 0 0 1 8.506 13.987Z"></path><path fill="#dbe6fc" d="M119.109 447.405H80.175a8.256 8.256 0 0 1-8.244-7.736l-5.742-91.762a3.538 3.538 0 0 1 3.533-3.757h59.839a3.538 3.538 0 0 1 3.533 3.757l-5.741 91.762a8.256 8.256 0 0 1-8.244 7.736Z"></path><path fill="#f9beac" d="M67.181 430.95a6.6 6.6 0 0 1-6.994-6.18l-3.463-56.113a6.6 6.6 0 0 1 6.18-6.994 17.444 17.444 0 0 1 18.486 16.336l2.127 34.465a17.444 17.444 0 0 1-16.336 18.486ZM138.572 392.993a11.227 11.227 0 0 1-15.205 7.334l-8.248-3.5a11.887 11.887 0 0 1-5.413-17.279l1.035-1.641a4.453 4.453 0 0 1 4.685-1.984l14.64 3.083a11.227 11.227 0 0 1 8.506 13.987Z"></path><path fill="#416bd0" d="M396.465 453.504 193.76 250.8l-28.228 10.521 230.933 230.932v-38.749z"></path><path fill="#dde279" d="m145.747 227.536 19.375-19.374 271.24 271.24a2.834 2.834 0 0 1 0 4.009l-15.365 15.366a2.834 2.834 0 0 1-4.009 0l-271.24-271.241Z"></path><path fill="#a7d454" d="m183.053 264.841 19.374-19.374 4.949 4.95-19.374 19.374zM250.362 293.402l-19.374 19.374v.001l4.949 4.949h.001l19.374-19.374v-.001l-4.95-4.949zM374.792 456.581l19.374-19.374 4.95 4.95-19.374 19.373z"></path><path fill="#97c13a" d="M143.284 73.378a133.054 133.054 0 0 0 21.838 134.784c-3.671 3.516-6.748 6.903-10.42 10.42-3.148-1.77-40.624-23.72-44.453-69.045-3.883-45.963 30.373-74.054 33.035-76.16Z"></path><path fill="#a7d454" d="M10.95 205.712a133.054 133.054 0 0 1 134.784 21.838c3.517-3.671 6.903-6.748 10.42-10.42-2.745-4.168-25.468-37.406-68.961-41.227-44.512-3.911-73.047 26.305-76.243 29.809zm398.647 246.925L293.406 336.446a12.192 12.192 0 0 0-8.97.102l-7.976 3.27a12.194 12.194 0 0 0-7.556 10.875l53.613 53.612a16.573 16.573 0 0 0 2.739 0l.556-.05 70.01 42.826a44.333 44.333 0 0 0 13.775 5.556z"></path><path fill="#f9beac" d="m334.236 396.478-8.98.828a16.637 16.637 0 0 1-13.639-5.16l-10.26-10.894 7.646-3.135-11.953 4.902a12.2 12.2 0 0 1-15.918-6.658l-11.33-27.625a12.2 12.2 0 0 1 6.658-15.918l7.975-3.27a12.2 12.2 0 0 1 9.264.002l31.967 13.126a12.2 12.2 0 0 1 5.228 4.104l20.729 28.461a12.2 12.2 0 0 0 6.008 4.394l38.834 18.415v-21.629h65.867l.45 26.126c0 34.37-37.64 55.469-66.96 37.534l-70.01-42.827"></path><path fill="#e58a7b" d="m396.465 398.05 4.278 2.678a2 2 0 0 0 2.811-2.663l-7.09-12.823Z"></path><path fill="#24242b" d="M299.642 182.795a26.304 26.304 0 0 1-20.011 0 3.5 3.5 0 1 0-2.656 6.476 33.224 33.224 0 0 0 11.816 2.49q.43.011.858.011a33.18 33.18 0 0 0 12.647-2.5 3.5 3.5 0 1 0-2.654-6.477Zm-29.5-67.88a3.5 3.5 0 1 0 2.654-6.477 33.297 33.297 0 0 0-25.321 0 3.5 3.5 0 1 0 2.656 6.477 26.304 26.304 0 0 1 20.01 0Zm4.814 39.774a14.68 14.68 0 1 0 29.358 0v-8.972a3.5 3.5 0 1 0-7 0v8.972a7.68 7.68 0 1 1-15.358 0v-8.972a3.5 3.5 0 0 0-7 0Zm190.875 224.39c-.001-.049-.014-.095-.017-.143.003-.053.016-.103.016-.156v-53.51a69.81 69.81 0 0 0-45.227-65.13l-67.69-25.229a29.623 29.623 0 0 1-19.193-27.641v-7.398a96.537 96.537 0 0 0 24.52-44.82 20.746 20.746 0 0 0 19.55-16.93l3.07-16.48a13.275 13.275 0 0 0-13.05-15.702h-6.924V40.64A40.625 40.625 0 0 0 312.04.854l-57.017 11.782a46.11 46.11 0 0 0-36.638 44.983v48.321h-6.925a13.274 13.274 0 0 0-13.05 15.7l3.069 16.48a20.754 20.754 0 0 0 19.553 16.932 96.533 96.533 0 0 0 24.518 44.818v7.4a29.622 29.622 0 0 1-19.193 27.641l-21.513 8.024-37.126-37.127a129.58 129.58 0 0 1-21.183-131.14 3.5 3.5 0 0 0-5.424-4.035c-3.937 3.11-38.354 31.748-34.348 79.201a87.292 87.292 0 0 0 7.595 29.06 92.389 92.389 0 0 0-26.859-6.478c-44.863-3.946-73.795 25.08-79.136 30.938a3.5 3.5 0 0 0 3.875 5.612 129.557 129.557 0 0 1 131.247 21.265c.008.007.016.01.023.016l25.894 25.895-10.735 3.999a69.809 69.809 0 0 0-45.227 65.128v15.381H69.72a7.034 7.034 0 0 0-7.023 7.48l.631 10.03c-.213.007-.424-.004-.639.009a10.11 10.11 0 0 0-9.458 10.703l3.463 56.112a10.112 10.112 0 0 0 10.075 9.478c.208 0 .418-.006.628-.02.236-.014.463-.056.696-.078l.344 5.523A11.77 11.77 0 0 0 80.17 450.9h32.807l1.959 2.004a34.652 34.652 0 0 0 24.895 10.558 35.435 35.435 0 0 0 7.997-.92 34.694 34.694 0 0 0 25.317-23.117l6.16-18.705v87.78a3.5 3.5 0 0 0 7 0V363.147a3.5 3.5 0 0 0-7 0v14.303H135.43c-.217-.132-.432-.265-.655-.386l1.807-28.931a7.036 7.036 0 0 0-7.023-7.483h-9.12v-15.38a62.777 62.777 0 0 1 40.671-58.57l13.734-5.116 93.97 93.97 9.079 22.134a15.7 15.7 0 0 0 20.484 8.57l.809-.332 75.604 75.604.004.005.005.005 18.16 18.16v28.8a3.5 3.5 0 0 0 7 0v-21.8l14.566 14.566a6.37 6.37 0 0 0 8.95-.012l15.36-15.37a6.342 6.342 0 0 0-.001-8.958l-27.393-27.393a46.365 46.365 0 0 0 7.316.604 47.44 47.44 0 0 0 23.25-6.157 46.96 46.96 0 0 0 24.273-41.5ZM360.886 132.481v-19.54h6.924a6.275 6.275 0 0 1 6.17 7.418l-3.072 16.482a13.76 13.76 0 0 1-11.25 11.055 97.957 97.957 0 0 0 1.228-15.415ZM208.36 136.84l-3.07-16.48a6.276 6.276 0 0 1 6.17-7.42h6.925v19.541a97.944 97.944 0 0 0 1.228 15.414 13.766 13.766 0 0 1-11.253-11.055ZM66.966 427.456a3.11 3.11 0 0 1-3.285-2.903l-3.463-56.113a3.104 3.104 0 0 1 2.903-3.285c.294-.017.587-.027.878-.027a13.945 13.945 0 0 1 13.898 13.087l2.128 34.465a13.962 13.962 0 0 1-13.06 14.776Zm74.41-43.006h37.929v13.894l-12.809 38.891a27.954 27.954 0 0 1-43.937 13.144 11.765 11.765 0 0 0 8.284-10.49l2.268-36.201c.348-.136.699-.266 1.038-.43a14.682 14.682 0 0 0 7.226-18.808Zm-7.02 1.528a7.651 7.651 0 0 1 .844 6.08 7.728 7.728 0 0 1-10.467 5.047l-8.247-3.5a8.387 8.387 0 0 1-3.819-12.19l1.034-1.642a.96.96 0 0 1 .81-.446.929.929 0 0 1 .193.02l14.642 3.084a7.65 7.65 0 0 1 5.01 3.547Zm-4.76-38.286-1.703 27.28-11.747-2.474a7.98 7.98 0 0 0-8.367 3.543l-1.034 1.642a15.386 15.386 0 0 0 7.007 22.366l8.246 3.5a14.72 14.72 0 0 0 4.041 1.06l-2.183 34.844a4.756 4.756 0 0 1-4.746 4.447H80.17a4.758 4.758 0 0 1-4.747-4.447l-.433-6.967a20.965 20.965 0 0 0 12.022-20.238l-2.128-34.465a20.93 20.93 0 0 0-14.473-18.64l-.691-11.493Zm224.29-227.755h-.708a6.299 6.299 0 0 1-6.292-6.29V88.892a51.512 51.512 0 0 0 7 1.495Zm-2.28-91.474a33.637 33.637 0 0 1 2.28 12.176v42.665a44.104 44.104 0 0 1-9.095-2.503l-.098-.04a43.863 43.863 0 0 1-22.614-20.377 112.342 112.342 0 0 0 17.582-15.896 112.311 112.311 0 0 0 11.945-16.025ZM225.385 57.619a39.082 39.082 0 0 1 31.054-38.128L313.456 7.71a33.655 33.655 0 0 1 34.272 13.525 105.406 105.406 0 0 1-13.284 18.588 105.43 105.43 0 0 1-18.775 16.53 162.31 162.31 0 0 1-40.078 19.48 162.308 162.308 0 0 1-50.206 7.95Zm0 51.87c0-.017.005-.032.005-.049s-.005-.031-.005-.048v-18.61q3.507 0 7-.147v23.012a6.298 6.298 0 0 1-6.291 6.29h-.71Zm1.913 41.487a3.342 3.342 0 0 0-.038-.186 90.685 90.685 0 0 1-1.875-18.309v-5.543h.709a13.306 13.306 0 0 0 13.29-13.292V90.2a168.83 168.83 0 0 0 38.373-7.712 169.203 169.203 0 0 0 38.492-18.156 50.814 50.814 0 0 0 23.637 21.984v27.331a13.306 13.306 0 0 0 13.292 13.291h.708v5.544a89.74 89.74 0 0 1-25.863 63.195 3.5 3.5 0 0 0-.485.48 90.14 90.14 0 0 1-29.28 19.506 22.433 22.433 0 0 1-17.246 0 90.14 90.14 0 0 1-29.288-19.515 3.486 3.486 0 0 0-.467-.463 89.57 89.57 0 0 1-23.959-44.708Zm1.504 90.494a36.65 36.65 0 0 0 23.748-34.2v-.858a97.365 97.365 0 0 0 25.789 15.719 29.39 29.39 0 0 0 22.594 0 97.353 97.353 0 0 0 25.787-15.717v.856a36.653 36.653 0 0 0 23.748 34.2l1.748.651a84.518 84.518 0 0 1-125.16 0Zm-8.767 3.27a91.517 91.517 0 0 0 139.202-.002l58.92 21.961a62.78 62.78 0 0 1 40.673 58.57v50.23l-58.865-2.436v-9.916a3.5 3.5 0 0 0-7 0v29.37l-33.833-16.044a3.432 3.432 0 0 0-.395-.16 8.64 8.64 0 0 1-4.285-3.132l-20.728-28.462a15.68 15.68 0 0 0-6.729-5.28l-31.967-13.127a15.603 15.603 0 0 0-7.86-1.054l-76.883-76.882Zm-106.298-95.494c-2.472-29.3 11.389-51.185 21.586-63.065a136.463 136.463 0 0 0 25.063 121.722c-.986.987-1.939 1.962-2.874 2.92l-.89.906a103.816 103.816 0 0 0-31.704-27.757 80.578 80.578 0 0 1-11.18-34.726Zm31.738 73.57A136.369 136.369 0 0 0 26.057 197.14c12.538-9.13 33.705-20.133 60.829-17.752a85.755 85.755 0 0 1 33.587 10.111 3.47 3.47 0 0 0 .556.302 96.014 96.014 0 0 1 30.6 26.946c-1.054 1.058-2.104 2.084-3.132 3.09-.99.968-2 1.955-3.022 2.977Zm32.803 32.303-.005-.005-27.597-27.597c.914-.91 1.823-1.802 2.715-2.674a263.86 263.86 0 0 0 4.479-4.467l.01-.008c1.023-.986 2-1.973 2.97-2.954l1.668-1.7c.843-.862 1.704-1.74 2.583-2.624l34.852 34.852-14.426 14.426Zm12.198 12.198 14.426-14.426 42.986 42.986-14.426 14.426Zm76.13 70.73a15.75 15.75 0 0 0-1.115 4.285l-27.08-27.08 14.426-14.426 26.875 26.876-4.58 1.878a15.6 15.6 0 0 0-8.527 8.468Zm57.424 62.823c.31-.005.621-.013.933-.032l65.502 40.069-13.196 13.202Zm109.386 80.535-14.42 14.43-36.777-36.776 14.422-14.429Zm5.169-43.53a40.026 40.026 0 0 1-40.937-.78l-61.551-37.652a3.5 3.5 0 0 0-2.182-6.45l-8.98.827a13.05 13.05 0 0 1-10.77-4.074l-6.77-7.186 2.936-1.205a3.5 3.5 0 1 0-2.656-6.476l-8.925 3.66-.113.046-2.915 1.196a8.7 8.7 0 0 1-11.352-4.749l-11.33-27.624a8.7 8.7 0 0 1 4.749-11.351l7.974-3.27a8.653 8.653 0 0 1 6.607 0l31.967 13.127a8.682 8.682 0 0 1 3.728 2.926l20.729 28.462a15.61 15.61 0 0 0 7.519 5.58l38.642 18.326 6.937 3.356a3.5 3.5 0 1 0 3.048-6.3l-4.975-2.408v-15.788l58.932 2.439.385 20.04a40.022 40.022 0 0 1-20.697 35.328ZM307.804 115.178a3.501 3.501 0 0 0 1.327-.263 26.304 26.304 0 0 1 20.01 0 3.5 3.5 0 1 0 2.655-6.477 33.297 33.297 0 0 0-25.321 0 3.5 3.5 0 0 0 1.329 6.74Zm-47.668 2.968a3.5 3.5 0 0 0-3.5 3.5v7.212a3.5 3.5 0 1 0 7 0v-7.212a3.5 3.5 0 0 0-3.5-3.5Zm59 0a3.5 3.5 0 0 0-3.5 3.5v7.212a3.5 3.5 0 1 0 7 0v-7.212a3.5 3.5 0 0 0-3.5-3.5Z"></path></svg>