<svg xmlns="http://www.w3.org/2000/svg" viewBox="0 0 64 64" id="change-pins"><g><path d="M53,56H11a7,7,0,0,1-7-7V23a7,7,0,0,1,7-7H37a1,1,0,0,1,0,2H11a5,5,0,0,0-5,5V49a5,5,0,0,0,5,5H53a5,5,0,0,0,5-5V30a1,1,0,0,1,2,0V49A7,7,0,0,1,53,56Zm-4-6a1,1,0,0,1-1-1V47.91l-.77.77a1,1,0,0,1-1.41-1.41l.77-.77H45.5a1,1,0,0,1,0-2h1.09l-.77-.77a1,1,0,0,1,1.41-1.41l.77.77V42a1,1,0,0,1,2,0v1.09l.77-.77a1,1,0,0,1,1.41,1.41l-.77.77H52.5a1,1,0,0,1,0,2H51.41l.77.77a1,1,0,0,1-1.41,1.41L50,47.91V49A1,1,0,0,1,49,50ZM37,50a1,1,0,0,1-1-1V47.91l-.77.77a1,1,0,0,1-1.41-1.41l.77-.77H33.5a1,1,0,0,1,0-2h1.09l-.77-.77a1,1,0,0,1,1.41-1.41l.77.77V42a1,1,0,0,1,2,0v1.09l.77-.77a1,1,0,0,1,1.41,1.41l-.77.77H40.5a1,1,0,0,1,0,2H39.41l.77.77a1,1,0,0,1-1.41,1.41L38,47.91V49A1,1,0,0,1,37,50ZM25,50a1,1,0,0,1-1-1V47.91l-.77.77a1,1,0,1,1-1.41-1.41l.77-.77H21.5a1,1,0,0,1,0-2h1.09l-.77-.77a1,1,0,1,1,1.41-1.41l.77.77V42a1,1,0,0,1,2,0v1.09l.77-.77a1,1,0,1,1,1.41,1.41l-.77.77H28.5a1,1,0,0,1,0,2H27.41l.77.77a1,1,0,1,1-1.41,1.41L26,47.91V49A1,1,0,0,1,25,50ZM13,50a1,1,0,0,1-1-1V47.91l-.77.77a1,1,0,0,1-1.41-1.41l.77-.77H9.5a1,1,0,0,1,0-2h1.09l-.77-.77a1,1,0,0,1,1.41-1.41l.77.77V42a1,1,0,0,1,2,0v1.09l.77-.77a1,1,0,0,1,1.41,1.41l-.77.77H16.5a1,1,0,0,1,0,2H15.41l.77.77a1,1,0,1,1-1.41,1.41L14,47.91V49A1,1,0,0,1,13,50ZM39,36.21a1,1,0,0,1-.56-.17,1,1,0,0,1-.44-.82l0-5.33a.93.93,0,0,1,.17-.56L50.7,10.56h0l1.66-2.48A4,4,0,1,1,59,12.51h0L44.77,33.78a.93.93,0,0,1-.46.37l-4.94,2A1.16,1.16,0,0,1,39,36.21Zm1-6,0,3.55,3.29-1.32L55.13,14.72l-3.32-2.23Zm13-19.35,3.33,2.23,1.11-1.66A2,2,0,1,0,54,9.17ZM58.19,12h0Z" fill="#ffffff"/></g></svg>