<svg xmlns="http://www.w3.org/2000/svg" width="32" height="32" id="product"><path fill="#ee7581" stroke="#105286" stroke-linecap="round" stroke-linejoin="round" d="M6.5 4.5h18c.554 0 1 .446 1 1v23c0 .554-.446 1-1 1h-18c-.554 0-1-.446-1-1v-23c0-.554.446-1 1-1z"></path><path fill="#fff" d="M8.03 26.255h12.184l3.536-3.533V5.928c0-.653-.526-1.178-1.179-1.178H8.43c-.653 0-1.179.525-1.179 1.178v19.084c0 .652.137 1.137.78 1.243z"></path><path fill="none" stroke="#105286" stroke-linecap="round" stroke-linejoin="round" d="M7.25 22.86v2.208c0 .652.526 1.177 1.179 1.177h11.785l3.536-3.532V5.928c0-.653-.526-1.178-1.179-1.178H8.43c-.653 0-1.179.525-1.179 1.178V20.842"></path><path fill="#105286" stroke="#105286" stroke-linecap="round" stroke-linejoin="round" d="m20.214 26.245 3.536-3.532h-2.357c-1.179 0-1.179 1.164-1.179 1.164z"></path><path fill="#70979c" stroke="#105286" stroke-linecap="round" stroke-linejoin="round" d="M12 3.5h7c.277 0 .5.223.5.5v2.01c0 .277-.223.5-.5.5h-7a.499.499 0 0 1-.5-.5V4c0-.277.223-.5.5-.5z"></path><path fill="#fff" stroke="#105286" stroke-linecap="round" stroke-linejoin="round" d="M19.245 11.005h2.024a.48.48 0 0 1 .481.481v9.289a.48.48 0 0 1-.48.48H9.73a.48.48 0 0 1-.48-.48v-9.289a.48.48 0 0 1 .48-.48h8.029"></path><path fill="none" stroke="#2dbca4" stroke-linecap="round" stroke-linejoin="round" d="m11.005 12.894.571.61 1.419-.994m-1.99 3.384.571.61 1.419-.994m-1.99 3.384.571.61 1.419-.994m1.998-5.005h5m-5 3h5m-5 3h5"></path></svg>