<svg xmlns="http://www.w3.org/2000/svg" enable-background="new 0 0 1550 1550" viewBox="0 0 1550 1550" id="refresh-leader" transform="matrix(1, 0, 0, 1, 0, 0)"><path fill="#736e6e" d="M976.35,488.35v80.21c-8.77-6.24-19.49-9.91-31.08-9.91h-21.2v-31.08l-60.76-67.83c-72.77,72.77-237.38,67.83-237.38,67.83v31.08h-21.2c-11.59,0-22.31,3.67-31.08,9.91v-78.64c0-111.15,90.94-203.31,202.09-202.92C886.6,287.4,976.35,377.4,976.35,488.35z"/><path fill="#f5c6b0" d="M625.93 662.51v3.53h-21.2c-14.83 0-28.25-6.01-37.96-15.73-9.72-9.71-15.73-23.13-15.73-37.96 0-18.07 8.93-34.06 22.61-43.79 8.77-6.24 19.49-9.91 31.08-9.91h21.2V662.51zM924.07 558.65v103.86c0 50.6-25.21 95.31-63.75 122.26-24.17 16.9-53.59 26.81-85.32 26.81s-61.15-9.91-85.32-26.81c-7.19-5.03-13.91-10.67-20.09-16.85-26.97-26.98-43.66-64.24-43.66-105.41V558.65v-31.08c0 0 164.61 4.94 237.38-67.83l60.76 67.83V558.65z"/><path fill="#f5c6b0" d="M976.35 568.56c13.68 9.73 22.61 25.72 22.61 43.79 0 14.83-6.01 28.25-15.73 37.96-9.71 9.72-23.13 15.73-37.96 15.73h-21.2v-3.53V558.65h21.2C956.86 558.65 967.58 562.32 976.35 568.56zM860.49 860.62v.27L775 960l-85.49-99.11v-.27-1.09-74.52l.17-.24c24.17 16.9 53.59 26.81 85.32 26.81s61.15-9.91 85.32-26.81l.17.24v74.52V860.62z"/><path fill="#fedd60" d="M1029.34,1417.49c-79.88,32.18-167.13,49.89-258.52,49.89c-87.68,0-171.55-16.3-248.75-46.04c-48.03-18.49-93.48-42.19-135.65-70.4v-271.58c0-74.36,48.45-140.04,119.5-162l183.59-56.74v0.27L775,960l85.49-99.11v-0.27l183.59,56.74c71.05,21.96,119.5,87.64,119.5,162v265.91C1121.91,1374.03,1076.93,1398.33,1029.34,1417.49z"/><g><path d="M83.97,711.3c-1,0-2.02-0.06-3.04-0.19c-13.15-1.66-22.46-13.67-20.8-26.82c21.69-171.63,105.23-329.72,235.22-445.14c64.17-56.97,137.09-101.51,216.74-132.37c82.47-31.95,169.51-48.15,258.72-48.15c82.1,0,162.61,13.78,239.3,40.95c74.12,26.26,143.1,64.43,205.02,113.45c61.32,48.54,114.01,106.36,156.61,171.85c43.34,66.62,75.03,139.38,94.2,216.26c3.21,12.86-4.62,25.89-17.48,29.09c-12.86,3.21-25.89-4.62-29.09-17.48c-74.3-298-341-506.12-648.55-506.12c-335.95,0-621,250.93-663.06,583.68C106.22,702.43,95.89,711.3,83.97,711.3z" fill="#ffffff"/><path d="M1442.51,631.13c-4.2,0-8.46-1.1-12.33-3.42l-127.42-76.47c-11.37-6.82-15.05-21.56-8.23-32.93c6.82-11.37,21.56-15.05,32.93-8.23l106.84,64.12l64.12-106.84c6.82-11.37,21.57-15.05,32.93-8.23c11.37,6.82,15.05,21.56,8.23,32.93l-76.47,127.42C1458.61,626.98,1450.66,631.13,1442.51,631.13z" fill="#ffffff"/><g><path d="M770.82,1491.38c-80.43,0-159.4-13.24-234.71-39.34c-72.8-25.24-140.79-61.97-202.09-109.19c-60.65-46.72-113.19-102.49-156.18-165.77c-43.65-64.26-76.33-134.65-97.13-209.22c-3.56-12.77,3.9-26,16.67-29.57c12.77-3.56,26,3.9,29.56,16.67c80.19,287.57,344.96,488.42,643.87,488.42c335.95,0,621-250.93,663.06-583.68c1.66-13.15,13.68-22.46,26.82-20.8c13.15,1.66,22.46,13.67,20.8,26.82c-21.7,171.63-105.23,329.72-235.22,445.14c-64.17,56.97-137.09,101.51-216.74,132.37C947.07,1475.17,860.02,1491.38,770.82,1491.38z" fill="#ffffff"/><path d="M30.98,1114.67c-3.99,0-8.04-1-11.76-3.09c-11.55-6.51-15.63-21.14-9.13-32.69l72.95-129.47c6.51-11.55,21.14-15.63,32.69-9.13l129.47,72.95c11.55,6.51,15.63,21.14,9.13,32.69c-6.51,11.55-21.14,15.63-32.69,9.13l-108.56-61.17l-61.17,108.56C47.5,1110.27,39.36,1114.67,30.98,1114.67z" fill="#ffffff"/></g><g><path d="M522.07 1445.34c-13.25 0-24-10.75-24-24v-317.48c0-13.25 10.75-24 24-24s24 10.75 24 24v317.48C546.07 1434.59 535.32 1445.34 522.07 1445.34zM775 984c-6.98 0-13.61-3.04-18.17-8.33l-85.49-99.11c-3.76-4.36-5.83-9.92-5.83-15.67v-75.88c0-13.25 10.75-24 24-24s24 10.75 24 24v66.96L775 923.26l61.49-71.29v-66.96c0-13.25 10.75-24 24-24s24 10.75 24 24v75.88c0 5.75-2.07 11.32-5.83 15.67l-85.49 99.11C788.62 980.96 781.98 984 775 984zM976.35 592.56c-13.25 0-24-10.75-24-24v-80.2c0-97.44-79.27-177-176.7-177.35-.21 0-.42 0-.63 0-46.6 0-90.72 18.4-124.31 51.87-34.22 34.1-53.07 79.22-53.07 127.05v78.64c0 13.25-10.75 24-24 24s-24-10.75-24-24v-78.64c0-30.61 6.08-60.41 18.08-88.56 11.58-27.17 28.1-51.55 49.11-72.49 42.64-42.49 98.8-65.87 158.18-65.87.27 0 .53 0 .8 0 60.02.22 116.42 23.75 158.79 66.28 42.39 42.53 65.74 99.03 65.74 159.07v80.2C1000.35 581.81 989.6 592.56 976.35 592.56z" fill="#ffffff"/><path d="M775,835.58c-95.43,0-173.07-77.64-173.07-173.07V527.57c0-6.49,2.63-12.7,7.29-17.22c4.65-4.52,10.94-6.96,17.42-6.77l0,0c1.54,0.05,155.21,3.7,219.71-60.81c4.66-4.66,11.05-7.2,17.63-7.02c6.59,0.18,12.82,3.07,17.22,7.98l60.76,67.82c3.94,4.4,6.12,10.1,6.12,16.01V662.5C948.07,757.94,870.43,835.58,775,835.58z M649.93,551.36V662.5c0,68.96,56.11,125.07,125.07,125.07s125.07-56.11,125.07-125.07V536.74l-39.03-43.57C796.37,540.79,696.18,549.83,649.93,551.36z" fill="#ffffff"/><path d="M625.93 690.04h-21.2c-42.84 0-77.69-34.85-77.69-77.69s34.85-77.69 77.69-77.69h21.2c13.25 0 24 10.75 24 24v107.39C649.93 679.3 639.18 690.04 625.93 690.04zM601.93 582.78c-15.06 1.42-26.89 14.13-26.89 29.56s11.83 28.15 26.89 29.56V582.78zM945.27 690.04h-21.19c-13.25 0-24-10.75-24-24V558.65c0-13.25 10.75-24 24-24h21.19c42.84 0 77.69 34.85 77.69 77.69C1022.96 655.19 988.11 690.04 945.27 690.04zM948.07 582.78v59.13c15.06-1.42 26.89-14.14 26.89-29.56C974.96 596.92 963.13 584.2 948.07 582.78z" fill="#ffffff"/><g><path d="M386.42,1374.94c-13.25,0-24-10.75-24-24v-271.58c0-41.65,13.07-81.38,37.79-114.9s58.83-57.73,98.62-70.03l184.3-56.96c12.66-3.92,26.1,3.17,30.02,15.84c3.92,12.66-3.17,26.1-15.84,30.02l-184.3,56.96c-61.36,18.96-102.59,74.85-102.59,139.07v271.58C410.42,1364.2,399.67,1374.94,386.42,1374.94z" fill="#ffffff"/></g><g><path d="M1163.58,1369.27c-13.25,0-24-10.75-24-24v-265.91c0-64.22-41.23-120.11-102.59-139.07l-184.31-56.96c-12.66-3.92-19.75-17.36-15.83-30.02s17.36-19.75,30.02-15.83l0.71,0.22l183.58,56.74c39.79,12.3,73.9,36.52,98.62,70.03c24.72,33.52,37.79,73.25,37.79,114.9v265.91C1187.58,1358.52,1176.83,1369.27,1163.58,1369.27z" fill="#ffffff"/></g><g><path d="M1029.34,1441.49c-13.25,0-24-10.75-24-24v-313.63c0-13.25,10.75-24,24-24s24,10.75,24,24v313.63C1053.34,1430.75,1042.59,1441.49,1029.34,1441.49z" fill="#ffffff"/></g></g></g></svg>